<mxfile host="app.diagrams.net" agent="Mozilla/5.0 (Windows NT 10.0; Win64; x64) AppleWebKit/537.36 (KHTML, like Gecko) Chrome/137.0.0.0 Safari/537.36" version="27.2.0">
  <diagram name="Página-1" id="wZkRwgYLWSzXHvx5H8jI">
    <mxGraphModel dx="1426" dy="743" grid="1" gridSize="10" guides="1" tooltips="1" connect="1" arrows="1" fold="1" page="1" pageScale="1" pageWidth="827" pageHeight="1169" math="0" shadow="0">
      <root>
        <mxCell id="0" />
        <mxCell id="1" parent="0" />
        <mxCell id="gFEfBCZMiXY_mP9-g559-1" value="Servidor Anfitrión (Debian)" style="whiteSpace=wrap;strokeWidth=2;labelBackgroundColor=none;rounded=1;" vertex="1" parent="1">
          <mxGeometry x="199" y="416" width="430" height="1076" as="geometry" />
        </mxCell>
        <mxCell id="gFEfBCZMiXY_mP9-g559-2" value="Entorno Docker del Pipeline" style="whiteSpace=wrap;strokeWidth=2;labelBackgroundColor=none;rounded=1;fillColor=#647687;fontColor=#ffffff;strokeColor=#314354;" vertex="1" parent="1">
          <mxGeometry x="219" y="991" width="390" height="476" as="geometry" />
        </mxCell>
        <mxCell id="gFEfBCZMiXY_mP9-g559-3" value="Entorno Docker de Jitsi" style="whiteSpace=wrap;strokeWidth=2;labelBackgroundColor=none;rounded=1;fillColor=#647687;fontColor=light-dark(#FFFFFF,#000000);strokeColor=#314354;fontStyle=1" vertex="1" parent="1">
          <mxGeometry x="281" y="545" width="326" height="212" as="geometry" />
        </mxCell>
        <mxCell id="gFEfBCZMiXY_mP9-g559-4" value="Internet" style="whiteSpace=wrap;strokeWidth=2;labelBackgroundColor=none;rounded=1;" vertex="1" parent="1">
          <mxGeometry x="350" y="258" width="188" height="104" as="geometry" />
        </mxCell>
        <mxCell id="gFEfBCZMiXY_mP9-g559-5" value="Cliente Externo" style="whiteSpace=wrap;strokeWidth=2;labelBackgroundColor=none;rounded=1;" vertex="1" parent="1">
          <mxGeometry x="332" y="100" width="223" height="104" as="geometry" />
        </mxCell>
        <mxCell id="gFEfBCZMiXY_mP9-g559-6" value="Cliente Móvil" style="whiteSpace=wrap;strokeWidth=2;labelBackgroundColor=none;rounded=1;" vertex="1" parent="1">
          <mxGeometry x="367" y="125" width="153" height="54" as="geometry" />
        </mxCell>
        <mxCell id="gFEfBCZMiXY_mP9-g559-7" value="Internet" style="whiteSpace=wrap;strokeWidth=2;labelBackgroundColor=none;rounded=1;" vertex="1" parent="1">
          <mxGeometry x="385" y="283" width="118" height="54" as="geometry" />
        </mxCell>
        <mxCell id="gFEfBCZMiXY_mP9-g559-8" value="Router con Port Forwarding" style="whiteSpace=wrap;strokeWidth=2;labelBackgroundColor=none;rounded=1;" vertex="1" parent="1">
          <mxGeometry x="316" y="441" width="256" height="54" as="geometry" />
        </mxCell>
        <mxCell id="gFEfBCZMiXY_mP9-g559-9" value="Jitsi Meet con Let&#39;s Encrypt" style="whiteSpace=wrap;strokeWidth=2;labelBackgroundColor=none;rounded=1;" vertex="1" parent="1">
          <mxGeometry x="316" y="570" width="256" height="54" as="geometry" />
        </mxCell>
        <mxCell id="gFEfBCZMiXY_mP9-g559-10" value="Jibri Recorder" style="whiteSpace=wrap;strokeWidth=2;labelBackgroundColor=none;rounded=1;" vertex="1" parent="1">
          <mxGeometry x="364" y="678" width="161" height="54" as="geometry" />
        </mxCell>
        <mxCell id="gFEfBCZMiXY_mP9-g559-11" value="Almacenamiento Persistente&#xa;/home/alvaro/.jitsi-meet-cfg/jibri/recordings/" style="whiteSpace=wrap;strokeWidth=2;labelBackgroundColor=none;rounded=1;" vertex="1" parent="1">
          <mxGeometry x="314" y="811" width="260" height="126" as="geometry" />
        </mxCell>
        <mxCell id="gFEfBCZMiXY_mP9-g559-12" value="Script python-processor" style="whiteSpace=wrap;strokeWidth=2;labelBackgroundColor=none;rounded=1;" vertex="1" parent="1">
          <mxGeometry x="329" y="1016" width="230" height="54" as="geometry" />
        </mxCell>
        <mxCell id="gFEfBCZMiXY_mP9-g559-13" value="Apache Kafka (KRaft)" style="whiteSpace=wrap;strokeWidth=2;labelBackgroundColor=none;rounded=1;" vertex="1" parent="1">
          <mxGeometry x="266" y="1124" width="213" height="54" as="geometry" />
        </mxCell>
        <mxCell id="gFEfBCZMiXY_mP9-g559-14" value="Clúster Apache Spark + OpenCV" style="whiteSpace=wrap;strokeWidth=2;labelBackgroundColor=none;rounded=1;" vertex="1" parent="1">
          <mxGeometry x="314" y="1250" width="260" height="78" as="geometry" />
        </mxCell>
        <mxCell id="gFEfBCZMiXY_mP9-g559-15" value="Resultados Procesados y Archivados" style="whiteSpace=wrap;strokeWidth=2;labelBackgroundColor=none;rounded=1;" vertex="1" parent="1">
          <mxGeometry x="314" y="1364" width="260" height="78" as="geometry" />
        </mxCell>
        <mxCell id="gFEfBCZMiXY_mP9-g559-16" value="1. Inicia Conferencia" style="curved=1;startArrow=none;endArrow=block;exitX=0.5;exitY=1;entryX=0.5;entryY=0;rounded=1;labelBackgroundColor=none;fontColor=default;strokeWidth=2;" edge="1" parent="1" source="gFEfBCZMiXY_mP9-g559-6" target="gFEfBCZMiXY_mP9-g559-7">
          <mxGeometry relative="1" as="geometry">
            <Array as="points" />
          </mxGeometry>
        </mxCell>
        <mxCell id="gFEfBCZMiXY_mP9-g559-17" value="2. Petición HTTPS (Puerto 443)" style="curved=1;startArrow=none;endArrow=block;exitX=0.5;exitY=1;entryX=0.5;entryY=0;rounded=1;labelBackgroundColor=none;fontColor=default;strokeWidth=2;" edge="1" parent="1" source="gFEfBCZMiXY_mP9-g559-7" target="gFEfBCZMiXY_mP9-g559-8">
          <mxGeometry relative="1" as="geometry">
            <Array as="points" />
          </mxGeometry>
        </mxCell>
        <mxCell id="gFEfBCZMiXY_mP9-g559-18" value="" style="curved=1;startArrow=none;endArrow=block;exitX=0.5;exitY=1;entryX=0.5;entryY=0;rounded=1;labelBackgroundColor=none;fontColor=default;" edge="1" parent="1" source="gFEfBCZMiXY_mP9-g559-8" target="gFEfBCZMiXY_mP9-g559-9">
          <mxGeometry relative="1" as="geometry">
            <Array as="points" />
          </mxGeometry>
        </mxCell>
        <mxCell id="gFEfBCZMiXY_mP9-g559-19" value="3. Se une para grabar" style="curved=1;startArrow=none;endArrow=block;exitX=0.5;exitY=1;entryX=0.5;entryY=0;rounded=1;labelBackgroundColor=none;fontColor=default;entryDx=0;entryDy=0;exitDx=0;exitDy=0;" edge="1" parent="1" source="gFEfBCZMiXY_mP9-g559-9" target="gFEfBCZMiXY_mP9-g559-10">
          <mxGeometry x="0.7262" y="66" relative="1" as="geometry">
            <Array as="points" />
            <mxPoint x="394" y="622" as="sourcePoint" />
            <mxPoint x="394.5" y="676" as="targetPoint" />
            <mxPoint as="offset" />
          </mxGeometry>
        </mxCell>
        <mxCell id="gFEfBCZMiXY_mP9-g559-20" value="4. Genera video.mp4" style="curved=1;startArrow=none;endArrow=block;exitX=0.5;exitY=1;entryX=0.5;entryY=0;rounded=1;labelBackgroundColor=none;fontColor=default;" edge="1" parent="1" source="gFEfBCZMiXY_mP9-g559-10" target="gFEfBCZMiXY_mP9-g559-11">
          <mxGeometry relative="1" as="geometry">
            <Array as="points" />
          </mxGeometry>
        </mxCell>
        <mxCell id="gFEfBCZMiXY_mP9-g559-21" value="5. Lee vídeo vía volumen compartido" style="curved=1;startArrow=none;endArrow=block;exitX=0.5;exitY=1;entryX=0.5;entryY=0;rounded=1;labelBackgroundColor=none;fontColor=default;" edge="1" parent="1" source="gFEfBCZMiXY_mP9-g559-11" target="gFEfBCZMiXY_mP9-g559-12">
          <mxGeometry relative="1" as="geometry">
            <Array as="points" />
          </mxGeometry>
        </mxCell>
        <mxCell id="gFEfBCZMiXY_mP9-g559-22" value="6. Produce evento (Línea Futura)" style="curved=1;startArrow=none;endArrow=block;exitX=0.34;exitY=1;entryX=0.5;entryY=0;rounded=1;labelBackgroundColor=none;fontColor=default;" edge="1" parent="1" source="gFEfBCZMiXY_mP9-g559-12" target="gFEfBCZMiXY_mP9-g559-13">
          <mxGeometry relative="1" as="geometry">
            <Array as="points">
              <mxPoint x="372" y="1097" />
            </Array>
          </mxGeometry>
        </mxCell>
        <mxCell id="gFEfBCZMiXY_mP9-g559-23" value="7. Consume evento (Línea Futura)" style="curved=1;startArrow=none;endArrow=block;exitX=0.5;exitY=1;entryX=0.34;entryY=0;rounded=1;labelBackgroundColor=none;fontColor=default;" edge="1" parent="1" source="gFEfBCZMiXY_mP9-g559-13" target="gFEfBCZMiXY_mP9-g559-14">
          <mxGeometry relative="1" as="geometry">
            <Array as="points">
              <mxPoint x="372" y="1205" />
            </Array>
          </mxGeometry>
        </mxCell>
        <mxCell id="gFEfBCZMiXY_mP9-g559-24" value="8. Envía trabajo a Spark" style="curved=1;startArrow=none;endArrow=block;exitX=0.66;exitY=1;entryX=0.66;entryY=0;rounded=1;labelBackgroundColor=none;fontColor=default;" edge="1" parent="1" source="gFEfBCZMiXY_mP9-g559-12" target="gFEfBCZMiXY_mP9-g559-14">
          <mxGeometry relative="1" as="geometry">
            <Array as="points">
              <mxPoint x="516" y="1097" />
              <mxPoint x="516" y="1205" />
            </Array>
          </mxGeometry>
        </mxCell>
        <mxCell id="gFEfBCZMiXY_mP9-g559-25" value="9. Guarda resultado y archiva original" style="curved=1;startArrow=none;endArrow=block;exitX=0.5;exitY=1;entryX=0.5;entryY=0;rounded=1;labelBackgroundColor=none;fontColor=default;" edge="1" parent="1" source="gFEfBCZMiXY_mP9-g559-14" target="gFEfBCZMiXY_mP9-g559-15">
          <mxGeometry relative="1" as="geometry">
            <Array as="points" />
          </mxGeometry>
        </mxCell>
      </root>
    </mxGraphModel>
  </diagram>
</mxfile>
